<?xml version="1.0" encoding="utf-8" standalone="no"?>
<!DOCTYPE svg PUBLIC "-//W3C//DTD SVG 1.1//EN"
  "http://www.w3.org/Graphics/SVG/1.1/DTD/svg11.dtd">
<svg xmlns:xlink="http://www.w3.org/1999/xlink" width="166.32pt" height="136.134687pt" viewBox="0 0 166.32 136.134687" xmlns="http://www.w3.org/2000/svg" version="1.1">
 <metadata>
  <rdf:RDF xmlns:dc="http://purl.org/dc/elements/1.1/" xmlns:cc="http://creativecommons.org/ns#" xmlns:rdf="http://www.w3.org/1999/02/22-rdf-syntax-ns#">
   <cc:Work>
    <dc:type rdf:resource="http://purl.org/dc/dcmitype/StillImage"/>
    <dc:date>2026-06-11T00:47:11.367245</dc:date>
    <dc:format>image/svg+xml</dc:format>
    <dc:creator>
     <cc:Agent>
      <dc:title>Matplotlib v3.10.9, https://matplotlib.org/</dc:title>
     </cc:Agent>
    </dc:creator>
   </cc:Work>
  </rdf:RDF>
 </metadata>
 <defs>
  <style type="text/css">*{stroke-linejoin: round; stroke-linecap: butt}</style>
 </defs>
 <g id="figure_1">
  <g id="patch_1">
   <path d="M 0 136.134687 
L 166.32 136.134687 
L 166.32 0 
L 0 0 
L 0 136.134687 
z
" style="fill: none; opacity: 0"/>
  </g>
  <g id="axes_1">
   <g id="line2d_1">
    <path d="M 157.08 83.16 
L 157.042784 80.814671 
L 156.931175 78.471704 
L 156.745285 76.133457 
L 156.4853 73.802286 
L 156.151483 71.480537 
L 155.744169 69.170548 
L 155.26377 66.874645 
L 154.710768 64.595141 
L 154.085721 62.334329 
L 153.389257 60.094488 
L 152.622079 57.877871 
L 151.784958 55.686711 
L 150.878737 53.523215 
L 149.90433 51.38956 
L 148.862716 49.287896 
L 147.754946 47.220337 
L 146.582134 45.188967 
L 145.345461 43.195831 
L 144.046173 41.242935 
L 142.685577 39.332246 
L 141.265045 37.465688 
L 139.786005 35.64514 
L 138.249948 33.872435 
L 136.65842 32.149359 
L 135.013024 30.477647 
L 133.315416 28.858981 
L 131.567305 27.294991 
L 129.770453 25.787253 
L 127.926668 24.337285 
L 126.037807 22.946546 
L 124.105771 21.616436 
L 122.132507 20.348296 
L 120.12 19.143402 
L 118.070278 18.002967 
L 115.985404 16.92814 
L 113.867478 15.920003 
L 111.718632 14.979571 
L 109.54103 14.10779 
L 107.336864 13.305539 
L 105.108354 12.573626 
L 102.857744 11.912788 
L 100.587301 11.323689 
L 98.299309 10.806923 
L 95.996073 10.363011 
L 93.679913 9.992399 
L 91.35316 9.695461 
L 89.018157 9.472495 
L 86.677255 9.323726 
L 84.332812 9.249304 
L 81.987188 9.249304 
L 79.642745 9.323726 
L 77.301843 9.472495 
L 74.96684 9.695461 
L 72.640087 9.992399 
L 70.323927 10.363011 
L 68.020691 10.806923 
L 65.732699 11.323689 
L 63.462256 11.912788 
L 61.211646 12.573626 
L 58.983136 13.305539 
L 56.77897 14.10779 
L 54.601368 14.979571 
L 52.452522 15.920003 
L 50.334596 16.92814 
L 48.249722 18.002967 
L 46.2 19.143402 
L 44.187493 20.348296 
L 42.214229 21.616436 
L 40.282193 22.946546 
L 38.393332 24.337285 
L 36.549547 25.787253 
L 34.752695 27.294991 
L 33.004584 28.858981 
L 31.306976 30.477647 
L 29.66158 32.149359 
L 28.070052 33.872435 
L 26.533995 35.64514 
L 25.054955 37.465688 
L 23.634423 39.332246 
L 22.273827 41.242935 
L 20.974539 43.195831 
L 19.737866 45.188967 
L 18.565054 47.220337 
L 17.457284 49.287896 
L 16.41567 51.38956 
L 15.441263 53.523215 
L 14.535042 55.686711 
L 13.697921 57.877871 
L 12.930743 60.094488 
L 12.234279 62.334329 
L 11.609232 64.595141 
L 11.05623 66.874645 
L 10.575831 69.170548 
L 10.168517 71.480537 
L 9.8347 73.802286 
L 9.574715 76.133457 
L 9.388825 78.471704 
L 9.277216 80.814671 
L 9.24 83.16 
" clip-path="url(#paf61fb14e7)" style="fill: none; stroke: #d3d3d3; stroke-width: 10; stroke-linecap: round"/>
   </g>
   <g id="line2d_2">
    <path d="M 157.08 83.16 
L 157.042376 80.801849 
L 156.929543 78.446099 
L 156.741616 76.095148 
L 156.478786 73.751388 
L 156.141321 71.417206 
L 155.729563 69.094978 
L 155.243933 66.787067 
L 154.684925 64.495823 
L 154.053107 62.223578 
L 153.349123 59.972646 
L 152.57369 57.745317 
L 151.727596 55.54386 
L 150.811703 53.370514 
L 149.826944 51.227493 
L 148.774321 49.116978 
L 147.654905 47.041118 
L 146.469836 45.002025 
L 145.22032 43.001775 
L 143.90763 41.042404 
L 142.533101 39.125907 
L 141.098132 37.254236 
L 139.604186 35.429294 
L 138.052781 33.65294 
L 136.445498 31.926982 
L 134.783972 30.253177 
L 133.069896 28.63323 
L 131.305013 27.068788 
L 129.491121 25.561444 
L 127.630066 24.112734 
L 125.723742 22.724131 
L 123.774089 21.397049 
L 121.783094 20.132839 
L 119.752782 18.932788 
L 117.68522 17.798118 
L 115.582512 16.729983 
L 113.4468 15.729472 
L 111.280258 14.797602 
L 109.08509 13.935321 
L 106.863531 13.143509 
L 104.617843 12.42297 
L 102.350312 11.774439 
L 100.063247 11.198575 
L 97.758974 10.695965 
L 95.43984 10.26712 
L 93.108206 9.912477 
L 90.766445 9.632397 
L 88.416941 9.427165 
L 86.062086 9.29699 
L 83.704276 9.242004 
L 81.345912 9.262263 
L 78.989395 9.357748 
L 76.637124 9.528359 
L 74.291493 9.773925 
L 71.954889 10.094195 
L 69.629691 10.488842 
L 67.318267 10.957466 
L 65.02297 11.499589 
L 62.746134 12.114659 
L 60.49008 12.80205 
L 58.257102 13.561063 
L 56.049474 14.390924 
L 53.869444 15.290789 
L 51.719231 16.259743 
L 49.601022 17.296798 
" clip-path="url(#paf61fb14e7)" style="fill: none; stroke: #9f794c; stroke-width: 10; stroke-linecap: round"/>
   </g>
   <g id="text_1">
    <!-- 65.0°C -->
    <g transform="translate(38.746875 117.5025) scale(0.24 -0.24)">
     <defs>
      <path id="DejaVuSans-Bold-36" d="M 2316 2303 
Q 2000 2303 1842 2098 
Q 1684 1894 1684 1484 
Q 1684 1075 1842 870 
Q 2000 666 2316 666 
Q 2634 666 2792 870 
Q 2950 1075 2950 1484 
Q 2950 1894 2792 2098 
Q 2634 2303 2316 2303 
z
M 3803 4544 
L 3803 3681 
Q 3506 3822 3243 3889 
Q 2981 3956 2731 3956 
Q 2194 3956 1894 3657 
Q 1594 3359 1544 2772 
Q 1750 2925 1990 3001 
Q 2231 3078 2516 3078 
Q 3231 3078 3670 2659 
Q 4109 2241 4109 1563 
Q 4109 813 3618 361 
Q 3128 -91 2303 -91 
Q 1394 -91 895 523 
Q 397 1138 397 2266 
Q 397 3422 980 4083 
Q 1563 4744 2578 4744 
Q 2900 4744 3203 4694 
Q 3506 4644 3803 4544 
z
" transform="scale(0.015625)"/>
      <path id="DejaVuSans-Bold-35" d="M 678 4666 
L 3669 4666 
L 3669 3781 
L 1638 3781 
L 1638 3059 
Q 1775 3097 1914 3117 
Q 2053 3138 2203 3138 
Q 3056 3138 3531 2711 
Q 4006 2284 4006 1522 
Q 4006 766 3489 337 
Q 2972 -91 2053 -91 
Q 1656 -91 1267 -14 
Q 878 63 494 219 
L 494 1166 
Q 875 947 1217 837 
Q 1559 728 1863 728 
Q 2300 728 2551 942 
Q 2803 1156 2803 1522 
Q 2803 1891 2551 2103 
Q 2300 2316 1863 2316 
Q 1603 2316 1309 2248 
Q 1016 2181 678 2041 
L 678 4666 
z
" transform="scale(0.015625)"/>
      <path id="DejaVuSans-Bold-2e" d="M 653 1209 
L 1778 1209 
L 1778 0 
L 653 0 
L 653 1209 
z
" transform="scale(0.015625)"/>
      <path id="DejaVuSans-Bold-30" d="M 2944 2338 
Q 2944 3213 2780 3570 
Q 2616 3928 2228 3928 
Q 1841 3928 1675 3570 
Q 1509 3213 1509 2338 
Q 1509 1453 1675 1090 
Q 1841 728 2228 728 
Q 2613 728 2778 1090 
Q 2944 1453 2944 2338 
z
M 4147 2328 
Q 4147 1169 3647 539 
Q 3147 -91 2228 -91 
Q 1306 -91 806 539 
Q 306 1169 306 2328 
Q 306 3491 806 4120 
Q 1306 4750 2228 4750 
Q 3147 4750 3647 4120 
Q 4147 3491 4147 2328 
z
" transform="scale(0.015625)"/>
      <path id="DejaVuSans-Bold-b0" d="M 1600 4288 
Q 1375 4288 1219 4131 
Q 1063 3975 1063 3750 
Q 1063 3525 1217 3372 
Q 1372 3219 1600 3219 
Q 1825 3219 1981 3373 
Q 2138 3528 2138 3750 
Q 2138 3975 1980 4131 
Q 1822 4288 1600 4288 
z
M 1600 4794 
Q 1806 4794 1997 4714 
Q 2188 4634 2338 4488 
Q 2484 4338 2561 4150 
Q 2638 3963 2638 3750 
Q 2638 3541 2561 3352 
Q 2484 3163 2344 3022 
Q 2194 2872 2000 2792 
Q 1806 2713 1594 2713 
Q 1153 2713 854 3011 
Q 556 3309 556 3750 
Q 556 4191 857 4492 
Q 1159 4794 1600 4794 
z
" transform="scale(0.015625)"/>
      <path id="DejaVuSans-Bold-43" d="M 4288 256 
Q 3956 84 3597 -3 
Q 3238 -91 2847 -91 
Q 1681 -91 1000 561 
Q 319 1213 319 2328 
Q 319 3447 1000 4098 
Q 1681 4750 2847 4750 
Q 3238 4750 3597 4662 
Q 3956 4575 4288 4403 
L 4288 3438 
Q 3953 3666 3628 3772 
Q 3303 3878 2944 3878 
Q 2300 3878 1931 3465 
Q 1563 3053 1563 2328 
Q 1563 1606 1931 1193 
Q 2300 781 2944 781 
Q 3303 781 3628 887 
Q 3953 994 4288 1222 
L 4288 256 
z
" transform="scale(0.015625)"/>
     </defs>
     <use xlink:href="#DejaVuSans-Bold-36"/>
     <use xlink:href="#DejaVuSans-Bold-35" transform="translate(69.580078 0)"/>
     <use xlink:href="#DejaVuSans-Bold-2e" transform="translate(139.160156 0)"/>
     <use xlink:href="#DejaVuSans-Bold-30" transform="translate(177.148438 0)"/>
     <use xlink:href="#DejaVuSans-Bold-b0" transform="translate(246.728516 0)"/>
     <use xlink:href="#DejaVuSans-Bold-43" transform="translate(296.728516 0)"/>
    </g>
   </g>
   <g id="text_2">
    <!-- GPU Temperature -->
    <g style="fill: #808080" transform="translate(21.830156 133.223125) scale(0.14 -0.14)">
     <defs>
      <path id="DejaVuSans-47" d="M 3809 666 
L 3809 1919 
L 2778 1919 
L 2778 2438 
L 4434 2438 
L 4434 434 
Q 4069 175 3628 42 
Q 3188 -91 2688 -91 
Q 1594 -91 976 548 
Q 359 1188 359 2328 
Q 359 3472 976 4111 
Q 1594 4750 2688 4750 
Q 3144 4750 3555 4637 
Q 3966 4525 4313 4306 
L 4313 3634 
Q 3963 3931 3569 4081 
Q 3175 4231 2741 4231 
Q 1884 4231 1454 3753 
Q 1025 3275 1025 2328 
Q 1025 1384 1454 906 
Q 1884 428 2741 428 
Q 3075 428 3337 486 
Q 3600 544 3809 666 
z
" transform="scale(0.015625)"/>
      <path id="DejaVuSans-50" d="M 1259 4147 
L 1259 2394 
L 2053 2394 
Q 2494 2394 2734 2622 
Q 2975 2850 2975 3272 
Q 2975 3691 2734 3919 
Q 2494 4147 2053 4147 
L 1259 4147 
z
M 628 4666 
L 2053 4666 
Q 2838 4666 3239 4311 
Q 3641 3956 3641 3272 
Q 3641 2581 3239 2228 
Q 2838 1875 2053 1875 
L 1259 1875 
L 1259 0 
L 628 0 
L 628 4666 
z
" transform="scale(0.015625)"/>
      <path id="DejaVuSans-55" d="M 556 4666 
L 1191 4666 
L 1191 1831 
Q 1191 1081 1462 751 
Q 1734 422 2344 422 
Q 2950 422 3222 751 
Q 3494 1081 3494 1831 
L 3494 4666 
L 4128 4666 
L 4128 1753 
Q 4128 841 3676 375 
Q 3225 -91 2344 -91 
Q 1459 -91 1007 375 
Q 556 841 556 1753 
L 556 4666 
z
" transform="scale(0.015625)"/>
      <path id="DejaVuSans-20" transform="scale(0.015625)"/>
      <path id="DejaVuSans-54" d="M -19 4666 
L 3928 4666 
L 3928 4134 
L 2272 4134 
L 2272 0 
L 1638 0 
L 1638 4134 
L -19 4134 
L -19 4666 
z
" transform="scale(0.015625)"/>
      <path id="DejaVuSans-65" d="M 3597 1894 
L 3597 1613 
L 953 1613 
Q 991 1019 1311 708 
Q 1631 397 2203 397 
Q 2534 397 2845 478 
Q 3156 559 3463 722 
L 3463 178 
Q 3153 47 2828 -22 
Q 2503 -91 2169 -91 
Q 1331 -91 842 396 
Q 353 884 353 1716 
Q 353 2575 817 3079 
Q 1281 3584 2069 3584 
Q 2775 3584 3186 3129 
Q 3597 2675 3597 1894 
z
M 3022 2063 
Q 3016 2534 2758 2815 
Q 2500 3097 2075 3097 
Q 1594 3097 1305 2825 
Q 1016 2553 972 2059 
L 3022 2063 
z
" transform="scale(0.015625)"/>
      <path id="DejaVuSans-6d" d="M 3328 2828 
Q 3544 3216 3844 3400 
Q 4144 3584 4550 3584 
Q 5097 3584 5394 3201 
Q 5691 2819 5691 2113 
L 5691 0 
L 5113 0 
L 5113 2094 
Q 5113 2597 4934 2840 
Q 4756 3084 4391 3084 
Q 3944 3084 3684 2787 
Q 3425 2491 3425 1978 
L 3425 0 
L 2847 0 
L 2847 2094 
Q 2847 2600 2669 2842 
Q 2491 3084 2119 3084 
Q 1678 3084 1418 2786 
Q 1159 2488 1159 1978 
L 1159 0 
L 581 0 
L 581 3500 
L 1159 3500 
L 1159 2956 
Q 1356 3278 1631 3431 
Q 1906 3584 2284 3584 
Q 2666 3584 2933 3390 
Q 3200 3197 3328 2828 
z
" transform="scale(0.015625)"/>
      <path id="DejaVuSans-70" d="M 1159 525 
L 1159 -1331 
L 581 -1331 
L 581 3500 
L 1159 3500 
L 1159 2969 
Q 1341 3281 1617 3432 
Q 1894 3584 2278 3584 
Q 2916 3584 3314 3078 
Q 3713 2572 3713 1747 
Q 3713 922 3314 415 
Q 2916 -91 2278 -91 
Q 1894 -91 1617 61 
Q 1341 213 1159 525 
z
M 3116 1747 
Q 3116 2381 2855 2742 
Q 2594 3103 2138 3103 
Q 1681 3103 1420 2742 
Q 1159 2381 1159 1747 
Q 1159 1113 1420 752 
Q 1681 391 2138 391 
Q 2594 391 2855 752 
Q 3116 1113 3116 1747 
z
" transform="scale(0.015625)"/>
      <path id="DejaVuSans-72" d="M 2631 2963 
Q 2534 3019 2420 3045 
Q 2306 3072 2169 3072 
Q 1681 3072 1420 2755 
Q 1159 2438 1159 1844 
L 1159 0 
L 581 0 
L 581 3500 
L 1159 3500 
L 1159 2956 
Q 1341 3275 1631 3429 
Q 1922 3584 2338 3584 
Q 2397 3584 2469 3576 
Q 2541 3569 2628 3553 
L 2631 2963 
z
" transform="scale(0.015625)"/>
      <path id="DejaVuSans-61" d="M 2194 1759 
Q 1497 1759 1228 1600 
Q 959 1441 959 1056 
Q 959 750 1161 570 
Q 1363 391 1709 391 
Q 2188 391 2477 730 
Q 2766 1069 2766 1631 
L 2766 1759 
L 2194 1759 
z
M 3341 1997 
L 3341 0 
L 2766 0 
L 2766 531 
Q 2569 213 2275 61 
Q 1981 -91 1556 -91 
Q 1019 -91 701 211 
Q 384 513 384 1019 
Q 384 1609 779 1909 
Q 1175 2209 1959 2209 
L 2766 2209 
L 2766 2266 
Q 2766 2663 2505 2880 
Q 2244 3097 1772 3097 
Q 1472 3097 1187 3025 
Q 903 2953 641 2809 
L 641 3341 
Q 956 3463 1253 3523 
Q 1550 3584 1831 3584 
Q 2591 3584 2966 3190 
Q 3341 2797 3341 1997 
z
" transform="scale(0.015625)"/>
      <path id="DejaVuSans-74" d="M 1172 4494 
L 1172 3500 
L 2356 3500 
L 2356 3053 
L 1172 3053 
L 1172 1153 
Q 1172 725 1289 603 
Q 1406 481 1766 481 
L 2356 481 
L 2356 0 
L 1766 0 
Q 1100 0 847 248 
Q 594 497 594 1153 
L 594 3053 
L 172 3053 
L 172 3500 
L 594 3500 
L 594 4494 
L 1172 4494 
z
" transform="scale(0.015625)"/>
      <path id="DejaVuSans-75" d="M 544 1381 
L 544 3500 
L 1119 3500 
L 1119 1403 
Q 1119 906 1312 657 
Q 1506 409 1894 409 
Q 2359 409 2629 706 
Q 2900 1003 2900 1516 
L 2900 3500 
L 3475 3500 
L 3475 0 
L 2900 0 
L 2900 538 
Q 2691 219 2414 64 
Q 2138 -91 1772 -91 
Q 1169 -91 856 284 
Q 544 659 544 1381 
z
M 1991 3584 
L 1991 3584 
z
" transform="scale(0.015625)"/>
     </defs>
     <use xlink:href="#DejaVuSans-47"/>
     <use xlink:href="#DejaVuSans-50" transform="translate(77.490234 0)"/>
     <use xlink:href="#DejaVuSans-55" transform="translate(137.792969 0)"/>
     <use xlink:href="#DejaVuSans-20" transform="translate(210.986328 0)"/>
     <use xlink:href="#DejaVuSans-54" transform="translate(242.773438 0)"/>
     <use xlink:href="#DejaVuSans-65" transform="translate(286.857422 0)"/>
     <use xlink:href="#DejaVuSans-6d" transform="translate(348.380859 0)"/>
     <use xlink:href="#DejaVuSans-70" transform="translate(445.792969 0)"/>
     <use xlink:href="#DejaVuSans-65" transform="translate(509.269531 0)"/>
     <use xlink:href="#DejaVuSans-72" transform="translate(570.792969 0)"/>
     <use xlink:href="#DejaVuSans-61" transform="translate(611.90625 0)"/>
     <use xlink:href="#DejaVuSans-74" transform="translate(673.185547 0)"/>
     <use xlink:href="#DejaVuSans-75" transform="translate(712.394531 0)"/>
     <use xlink:href="#DejaVuSans-72" transform="translate(775.773438 0)"/>
     <use xlink:href="#DejaVuSans-65" transform="translate(814.636719 0)"/>
    </g>
   </g>
   <g id="patch_2">
    <path d="M 83.16 97.02 
C 86.835715 97.02 90.361377 95.559623 92.9605 92.9605 
C 95.559623 90.361377 97.02 86.835715 97.02 83.16 
C 97.02 79.484285 95.559623 75.958623 92.9605 73.3595 
C 90.361377 70.760377 86.835715 69.3 83.16 69.3 
C 79.484285 69.3 75.958623 70.760377 73.3595 73.3595 
C 70.760377 75.958623 69.3 79.484285 69.3 83.16 
C 69.3 86.835715 70.760377 90.361377 73.3595 92.9605 
C 75.958623 95.559623 79.484285 97.02 83.16 97.02 
z
" clip-path="url(#paf61fb14e7)" style="fill: #ffffff; stroke: #ffffff; stroke-linejoin: miter"/>
   </g>
  </g>
 </g>
 <defs>
  <clipPath id="paf61fb14e7">
   <rect x="0" y="0" width="166.32" height="110.88"/>
  </clipPath>
 </defs>
</svg>
